<svg id="Layer_1" data-name="Layer 1" xmlns="http://www.w3.org/2000/svg" viewBox="0 0 46.13 46.54"><defs><style>.cls-1,.cls-2,.cls-3{fill:#216581;}.cls-2,.cls-3{stroke:#216581;stroke-miterlimit:10;}.cls-2{stroke-width:1.07px;}.cls-3{stroke-width:0.97px;}.cls-4{fill:#fff;}</style></defs><path class="cls-1" d="M1,18.19C1.88,25.76,14.91,36.69,25.77,47,36.13,35.47,47,22.91,47,18.07Z" transform="translate(-0.97 -0.46)"/><path class="cls-2" d="M46.56,16.74A12.92,12.92,0,0,1,42,26.24l-.37.33C37.5,30.17,31.15,32.48,24,32.48c-7.27,0-13.75-2.42-17.87-6.16L6,26.19l-.37-.36a12.74,12.74,0,0,1-4.15-9.09C1.51,8.05,11.61,1,24,1S46.56,8.05,46.56,16.74Z" transform="translate(-0.97 -0.46)"/><path class="cls-3" d="M42.64,24.67l-.94,1c-4.11,3.6-10.46,5.91-17.58,5.91S10.37,29.22,6.26,25.48l-.15-.14L5.74,25l-.31-.31H7.59a.86.86,0,0,0,.14.13,1.8,1.8,0,0,0,.2.19l.18.16.18.15c3.78,3.21,9.47,5.25,15.83,5.25,6.73,0,12.7-2.28,16.47-5.82l.07-.06Z" transform="translate(-0.97 -0.46)"/><path class="cls-4" d="M31,25.05V9.55a2.5,2.5,0,0,0-.86-1.84,2.74,2.74,0,0,0-.89-.52A2.89,2.89,0,0,0,28.17,7h-7a3.44,3.44,0,0,0-2.46,1h0a2.66,2.66,0,0,0-.79,1.86v15.2L16,25.12V27H33V25.05Zm-4.83-7.14-3.21,4.56,1.38-3.1-1.47.88,1.37-3.92h1.93l-1.74,2.09Zm3.22-4H19.63V10.44a1.62,1.62,0,0,1,.38-1,3.37,3.37,0,0,1,2.67-1.19h3.64A3.37,3.37,0,0,1,29,9.44a1.62,1.62,0,0,1,.38,1Z" transform="translate(-0.97 -0.46)"/></svg>