<svg width="580" height="350" xmlns="http://www.w3.org/2000/svg">
    <!-- Created with Method Draw - http://github.com/duopixel/Method-Draw/ -->

    <g>
        <title>background</title>
        <rect x="-1" y="-1" width="582" height="402" id="canvas_background" fill="#fff" />
        <g id="canvasGrid" display="none">
            <rect id="svg_1" width="100%" height="100%" x="0" y="0" stroke-width="0" fill="url(#gridpattern)" />
        </g>
    </g>
    <g>
        <title>Layer 1</title>
        <g stroke="null" id="svg_2">
            <path fill="#2D660A" stroke="null" id="svg_3" d="m575.46512,373.99036l-168.19503,-116.1968c31.90155,-27.20858 51.10468,-61.79918 51.10468,-99.46009c0,-87.30463 -102.81437,-158.33349 -229.18795,-158.33349s-229.18682,71.02886 -229.18682,158.33349s102.81437,158.33349 229.18795,158.33349c54.51422,0 104.58417,-13.26718 143.96862,-35.30544l168.19503,116.1968c4.71229,3.2539 12.34786,3.2539 17.06015,0l17.0545,-11.7828c4.71003,-3.25469 4.71003,-8.53124 -0.00113,-11.78515zm-346.27717,-90.65697c-99.77462,0 -180.93756,-56.07106 -180.93756,-124.99991s81.16293,-124.99991 180.93756,-124.99991s180.93756,56.07106 180.93756,124.99991s-81.16293,124.99991 -180.93756,124.99991z" />
        </g>
    </g>
</svg>