<svg id="Layer_1" data-name="Layer 1" xmlns="http://www.w3.org/2000/svg" xmlns:xlink="http://www.w3.org/1999/xlink" viewBox="0 0 260.85 160"><defs><style>.cls-1{fill:#216581;}.cls-2,.cls-3{fill:none;stroke:#000;stroke-miterlimit:10;}.cls-2{stroke-width:0.32px;}.cls-3{stroke-width:1.51px;}.cls-4{fill:url(#linear-gradient);}.cls-5{fill:url(#linear-gradient-2);}.cls-6{fill:url(#linear-gradient-3);}</style><linearGradient id="linear-gradient" y1="138.11" x2="260.85" y2="138.11" gradientUnits="userSpaceOnUse"><stop offset="0.16" stop-color="#fff"/><stop offset="0.9" stop-color="#216581"/></linearGradient><linearGradient id="linear-gradient-2" x1="10" y1="147.85" x2="246.2" y2="147.85" gradientUnits="userSpaceOnUse"><stop offset="0.1" stop-color="#216581"/><stop offset="0.84" stop-color="#fff"/></linearGradient><linearGradient id="linear-gradient-3" x1="26.56" y1="157.74" x2="260" y2="157.74" xlink:href="#linear-gradient"/></defs><path class="cls-1" d="M101.68,549.19V444.26a22.41,22.41,0,0,0-3.55-12.44h0c-2.08-3.08-5-4.82-8-4.82H61.31c-3.91,0-7.62,2.44-10.11,6.66h0A25,25,0,0,0,48,446.3V549.19l-8,.53v12.69h70V549.19ZM81.81,500.9,68.57,531.72l5.67-21-6,6,5.67-26.54h8l-7.19,14.13Zm13.24-27.09H55V450.27a15.69,15.69,0,0,1,1.57-6.77c2.41-5.1,6.59-8,11-8h15c4.38,0,8.56,2.94,11,8a15.69,15.69,0,0,1,1.57,6.77Z" transform="translate(-30 -427)"/><path class="cls-2" d="M253.87,547.72" transform="translate(-30 -427)"/><path class="cls-2" d="M243.73,547" transform="translate(-30 -427)"/><path d="M268.4,515.06c-9.79.17-17.23,10-17.54,23.16S258.31,562.3,268,562.7c10,.4,18.29-8.88,18.94-22C287.66,526.54,279,514.89,268.4,515.06Zm1.31,39c-6.29,0-12.15-6.49-12.15-15.39S262.33,523,268.62,523s11.4,6.73,11.4,15.63C280,545.57,276,554,269.71,554Z" transform="translate(-30 -427)"/><path d="M267.25,521.66l3.68,12.82c.39,1.75-.2,3.65-1.37,4.37h-.28c-1.67,1-3.3-.3-3.81-2.82l-3.22-11.83" transform="translate(-30 -427)"/><path d="M271.2,501.44c-.19,0-1.27,0-3.51,1.25s-2.19-4.8-1.64-7.39c.62-2.92-2.17-2.9-4.48-3.22-.46-.07-1.42-.05-1.66-.58l-5.37-15.56c-1.14-2.51,0-5.78,2.2-6.12L260,459.41c.87-2.8-.53-6-2.77-6.2-8-.91-13,1-15.24,7.35a0,0,0,0,1,0,0H230.74s0,0,0,0c-1.91,1.85-2.18,7,.85,7.74h12a0,0,0,0,1,0,0A87.66,87.66,0,0,0,254,501.16a.07.07,0,0,1,0,.08c-6.53,3.71-9,14.8-10.36,26.53a0,0,0,0,1,0,0H219.75c-3.89,0-6.63-5.15-5.38-10.12l6.57-26.18c1.44-5.75-1.73-11.72-6.23-11.72H182.94c-4,0-7.26,4.39-7.26,9.8v7.52s0,0,0,0C161,498.18,151.6,517,148.36,530c-1.49,6,1.86,12.17,6.54,12.14,22.84-.18,94.62-.68,93.63.05-2.07-31.44,21.53-40.85,35.59-23.27h0C287.61,520.84,283.3,504.17,271.2,501.44Zm-67.84,13.87c-2,.41-5.85,1.13-6.45.86s1.07,9.84,2.15,16.14c.2,1.16-.91,1.88-1.46.94L181,504.76c-.17-.21-.21-.34,0,0h0a1.31,1.31,0,0,0,.62.51h0l9.19.93s0,0,0-.06l-1.44-13.73c-.06-.85.74-1.29,1.14-.62l13.23,22C204.15,514.35,203.9,515.21,203.36,515.31Z" transform="translate(-30 -427)"/><path d="M179.65,554.86c4.06,0,7.43-4.33,8.13-10a0,0,0,0,1,0,0h6.72s0,0,0,.06c-1,10.24-7.28,18.14-14.92,18.14s-13.94-7.9-14.91-18.14c0,0,0-.06,0-.06h6.72s0,0,0,0C172.22,550.53,175.6,554.86,179.65,554.86Z" transform="translate(-30 -427)"/><path d="M108.66,493.74v2.1h-2.42a1.63,1.63,0,0,0,0,2.11h2.42v2.23h-2.25a1.35,1.35,0,0,0,0,2.11h2.25v2.1h3.16a5.25,5.25,0,0,0,2.66-4.21V498c-.39-2.08-1.24-3.53-2.66-4.21Z" transform="translate(-30 -427)"/><path class="cls-3" d="M113.87,498.83s1.49.24,11.79,5.75,1,4.31,10.9,11.26S147,519,147,515.84s5.68-4.32,5.68-4.32a4.83,4.83,0,0,1,4,0" transform="translate(-30 -427)"/><rect class="cls-4" y="136" width="260.85" height="4.22" rx="1.83"/><rect class="cls-5" x="10" y="145.3" width="236.2" height="5.09" rx="2.12"/><rect class="cls-6" x="26.56" y="155.48" width="233.44" height="4.52" rx="1.89"/></svg>