<svg width="800" height="400" xmlns="http://www.w3.org/2000/svg">
 <!-- Created with Method Draw - http://github.com/duopixel/Method-Draw/ -->

 <style type="text/css">
    #svg_44{fill:url(#MyGradient)}
  </style>
  <defs>

    <linearGradient id="MyGradient">
        <stop offset="0%" style="stop-color: #36096d;"/>
        <stop offset="30%" style="stop-color: #37d5d6"/>
        <stop offset="100%" style="stop-color: #36096d;"/>
      </linearGradient>

  </defs>

 <g>
  <title>background</title>
  <rect fill="#fff" id="canvas_background" height="402" width="802" y="-1" x="-1"/>
  <g display="none" id="canvasGrid">
   <rect fill="url(#gridpattern)" stroke-width="0" y="0" x="0" height="100%" width="100%" id="svg_1"/>
  </g>
 </g>
 <g>
  <title>Layer 1</title>
  <g stroke="null" id="svg_2">
   <path stroke="null" id="svg_22" d="m54.84469,1.99952c-5.51833,1.44885 -11.03667,5.23194 -13.84424,9.49799l-2.12989,3.38064l-0.48406,172.65418l-0.48406,172.65418l-15.19962,0.40246c-14.52194,0.40246 -15.29644,0.48295 -17.81357,2.41474c-4.35657,3.38064 -5.2279,6.27833 -5.2279,17.22518c0,10.46388 0.67769,13.36159 4.06614,16.33977l2.03307,1.8513l146.09065,0c145.7034,0 145.99384,0 147.93009,-1.60983c3.29164,-2.73671 3.87251,-5.23194 3.87251,-16.58124c0,-18.27156 -1.64582,-19.63992 -23.42872,-19.63992l-14.32831,0l-0.19363,-172.4932l-0.29043,-172.41271l-2.12989,-3.30015c-1.16176,-1.77081 -3.87251,-4.58801 -6.0024,-6.19784c-7.45459,-5.6344 -3.48526,-5.39293 -106.01011,-5.31243c-75.99812,0 -92.84356,0.24147 -96.42564,1.12688zm173.19826,21.6522c4.5502,2.01229 8.61635,6.51981 9.29404,10.3029c0.29043,1.93179 0.48406,25.19383 0.29043,51.8365l-0.29043,48.29488l-2.42032,2.97818c-1.25857,1.60983 -3.96933,3.62211 -5.90558,4.50752c-3.48526,1.69032 -4.74383,1.69032 -77.54712,1.69032l-74.06186,0l-3.29164,-1.8513c-4.93745,-2.8172 -7.45459,-6.35882 -8.13228,-12.07371c-0.29043,-2.73671 -0.48406,-25.67678 -0.29043,-51.03159l0.29043,-45.96063l2.90438,-3.46113c5.80878,-6.76128 0.19363,-6.35882 83.06546,-6.35882c62.15387,0 73.77142,0.16098 76.09493,1.12688zm-57.1196,153.73869c0.87131,0.88541 -0.48406,7.56619 -6.19603,29.54036c-3.96933,15.61535 -6.87372,28.73545 -6.38965,29.13791c0.38725,0.32197 7.74503,-0.32197 16.16775,-1.52934c19.07214,-2.65622 17.81357,-2.57573 19.07214,-0.9659c0.87131,1.04639 -3.58208,9.4175 -22.36378,42.66048c-12.87612,22.69859 -24.0096,41.61409 -24.88091,42.09704c-0.96813,0.56344 -1.83944,0.40246 -3.09801,-0.56344c-1.45219,-1.28786 -1.16176,-3.05867 5.42152,-28.97692c3.87251,-15.21289 7.06734,-28.17201 7.16415,-28.81594c0.29043,-1.60983 -5.90558,-1.28786 -21.58928,1.12688c-12.19842,1.93179 -14.52194,1.77081 -14.52194,-0.88541c0,-1.20737 43.5658,-78.88163 46.08294,-82.18178c1.54901,-2.01229 3.48526,-2.25376 5.13108,-0.64393l0,-0.00001z"/>
  </g>
  <g stroke="null" id="svg_3">
   <path stroke="null" id="svg_33" d="m263.83745,213.05596l0,18.72425l6.78081,0c9.53243,0 9.92552,-0.46979 9.92552,-11.54326l0,-8.59033l3.73435,0c5.6998,0 15.72359,1.87914 22.70094,4.22805c8.5497,2.8187 21.32513,11.34193 25.45257,16.91222c6.97734,9.59701 6.48599,4.02672 7.07562,79.25925l0.49135,67.78311l3.73435,5.10051c4.42226,6.10719 10.90825,10.46947 19.16313,12.75128c5.40499,1.47646 6.58425,1.54357 35.57463,1.54357l29.9731,0l6.58425,-2.14758c8.05835,-2.61737 14.24951,-6.7112 18.08213,-12.01305l2.8499,-3.95961l0.49135,-29.19371c0.58963,-31.54263 0.68791,-32.01241 6.28943,-38.58939c4.02917,-4.69784 11.59614,-9.39567 19.35967,-12.01305c3.83263,-1.34224 7.66525,-2.41603 8.35316,-2.41603c1.081,0 1.37582,-1.20802 1.37582,-4.76495l0,-4.76495l-3.14472,0.46979c-18.77004,2.75159 -35.27982,12.81839 -42.35543,25.70389c-1.96545,3.62405 -2.06372,5.36896 -2.65336,33.0191c-0.58963,33.0191 -0.49135,32.75065 -8.45142,37.44849c-6.38771,3.89249 -8.74624,4.16095 -37.93317,4.16095c-25.84566,0 -25.94393,0 -30.95583,-1.6778c-5.01189,-1.74491 -9.04107,-4.63073 -11.30133,-8.18767c-0.98273,-1.40935 -1.37582,-17.38201 -1.7689,-68.99112c-0.68791,-75.0312 -0.19654,-70.5347 -7.86179,-81.2055c-10.90825,-15.30153 -33.11782,-25.90523 -57.88248,-27.58303l-6.97734,-0.46979l0,-2.41603c0,-4.16095 -1.67064,-5.0334 -9.72897,-5.16762l-6.97734,-0.06711l0,18.65713l0,0l-0.00002,0l0.00003,-0.00001z"/>
  </g>
  <g stroke="null" transform="rotate(-0.2113942801952362 377.83346557613976,296.8117065429706) " id="svg_4">
   <path stroke="null" d="m598.05596,154.55102c-17.32601,2.18985 -29.61172,8.05091 -41.14139,19.70863c-12.0337,12.23738 -18.77509,28.21038 -20.47619,48.69189l-0.75604,9.27465l-3.71722,1.54578c-2.07912,0.83729 -3.78022,1.54578 -3.84322,1.54578c-0.063,0 -0.50403,-3.86443 -0.94505,-8.50176c-0.75604,-7.92209 -0.94505,-8.63058 -2.58315,-10.30516c-0.94505,-1.03052 -2.39414,-1.8034 -3.27619,-1.8034c-3.59121,0 -24.69743,3.34918 -26.27252,4.18647c-2.26813,1.22374 -5.04029,4.57292 -5.1033,6.31191c-0.56703,9.14583 2.39414,13.3323 9.51355,13.3323c1.89011,0 6.30037,-0.45085 9.76557,-0.96611c3.4652,-0.51526 6.48938,-0.96611 6.74139,-0.96611c0.25201,0 0.63004,1.28814 0.81905,2.83392c0.44103,2.76952 0.37802,2.89832 -2.26813,5.28139c-10.3956,9.33905 -17.07399,19.90185 -21.16923,33.42737l-1.7641,5.79666l0,48.30545l0,48.30545l2.01612,4.25088c5.1033,10.49838 17.13699,16.93911 27.91062,14.87808c7.49744,-1.41696 13.60879,-5.34581 17.70403,-11.5289c3.15018,-4.63732 3.90623,-7.60006 4.28425,-16.29504l0.37802,-8.05091l100.67984,-0.19322l100.61684,-0.12882l0,6.2475c0,3.47799 0.31502,7.60006 0.69304,9.14583c3.08718,13.91197 16.63297,23.25102 30.05274,20.73914c8.88352,-1.61018 16.06593,-7.1492 19.84615,-15.32893l2.01612,-4.3797l0.18901,-44.89187c0.12601,-43.34609 0.12601,-45.14949 -1.13407,-51.52582c-2.70916,-13.58993 -8.5685,-24.53917 -18.52308,-34.90874c-5.98535,-6.2475 -6.23736,-6.63395 -6.11135,-9.08142c0.12601,-1.41696 0.25201,-2.6407 0.37802,-2.76952c0.12601,-0.12882 3.21319,0.25763 6.8674,0.77289c8.5685,1.28814 12.53773,1.28814 15.24688,0c2.77216,-1.35256 3.96923,-3.73563 4.41026,-8.8238c0.31502,-3.47799 0.18901,-4.25088 -1.13407,-6.1831c-2.33114,-3.47799 -4.85128,-4.3797 -17.51502,-6.1831c-12.47472,-1.8034 -15.24688,-1.739 -16.69597,0.51526c-0.50403,0.77289 -1.32308,5.21699 -1.89011,9.78991c-0.56703,4.57292 -1.07106,8.43735 -1.19707,8.50176c-0.12601,0.12882 -1.7641,-0.51526 -3.65421,-1.35256c-3.90623,-1.8034 -4.28425,-2.44747 -4.28425,-8.43735c0,-2.12544 -0.44103,-6.63395 -0.88205,-9.98313c-4.47326,-29.94938 -24.0674,-52.49192 -51.85201,-59.38349c-5.41831,-1.35256 -6.8674,-1.41696 -52.79706,-1.54578c-25.95751,-0.0644 -48.07179,0 -49.14285,0.12882l0,0.00001zm96.71061,13.07468c18.20806,5.02377 32.88791,17.7764 40.70036,35.23078c2.77216,6.2475 5.1663,15.20011 5.67033,21.18999l0.44103,4.5085l-97.21464,0l-97.15164,0l0.44103,-3.5424c1.26007,-10.43398 4.53626,-20.61032 9.51355,-29.11208c4.22125,-7.21362 13.92381,-17.13233 20.85421,-21.38321c5.85934,-3.5424 15.4989,-7.1492 21.61025,-8.05091c2.33114,-0.32204 22.74432,-0.51526 46.93772,-0.45085c42.59047,0.12882 42.90549,0.12882 48.1978,1.61018zm-163.30548,98.67192c25.01245,7.0848 32.00586,9.14583 33.20293,9.72549c4.53626,2.38307 7.24542,8.50176 5.98535,13.46112c-1.44908,5.53902 -5.92234,9.14583 -11.34066,9.21024c-2.83516,0 -40.95238,-10.49838 -44.10256,-12.17297c-2.14212,-1.15933 -4.85128,-4.12206 -5.60733,-6.31191c-2.83516,-7.60006 2.83516,-16.23063 10.83663,-16.48826c0.94505,-0.0644 5.92234,1.09492 11.02564,2.57629l0,-0.00001zm241.241,0c2.20513,0.83729 5.04029,3.5424 6.30037,5.98988c1.13407,2.25425 1.26007,7.9865 0.18901,10.11194c-0.94505,1.86781 -3.71722,4.95936 -5.1033,5.73224c-2.14212,1.22374 -42.14945,12.23738 -44.29157,12.23738c-2.58315,0 -6.36337,-1.41696 -8.12747,-3.09155c-3.5282,-3.22036 -4.59927,-9.78991 -2.33114,-14.23401c1.38608,-2.83392 4.41026,-5.66784 6.67839,-6.2475c0.81905,-0.19322 9.95458,-2.83392 20.28718,-5.73224c18.52308,-5.34581 22.93333,-6.11869 26.39853,-4.76614zm-74.28131,24.02391l2.33114,2.18985l0.18901,9.66109c0.25201,11.01365 -0.37802,13.46112 -3.78022,15.58655c-2.01612,1.28814 -3.02418,1.28814 -52.73406,1.28814c-49.70989,0 -50.65494,0 -52.67106,-1.28814c-3.21319,-1.99663 -4.09524,-5.15259 -4.09524,-14.04079c0,-9.08142 0.63004,-11.78652 3.33919,-13.91197l2.01612,-1.67459l51.53699,0l51.47399,0l2.39414,2.18985z" id="svg_44"/>
  
   

</g>
 </g>
</svg>