<svg width="300" height="400" xmlns="http://www.w3.org/2000/svg">


    <g>
        <rect fill="#fff" id="canvas_background" height="800" width="800" y="-1" x="-1" />
        <g display="none" id="canvasGrid">
            <rect stroke-width="0" y="0" x="0" height="100%" width="100%" id="svg_1" />
        </g>
    </g>
    <g stroke="null" id="svg_2">
        <path fill="#216581" stroke="null" id="svg_22" d="m54.84469,1.99952c-5.51833,1.44885 -11.03667,5.23194 -13.84424,9.49799l-2.12989,3.38064l-0.48406,172.65418l-0.48406,172.65418l-15.19962,0.40246c-14.52194,0.40246 -15.29644,0.48295 -17.81357,2.41474c-4.35657,3.38064 -5.2279,6.27833 -5.2279,17.22518c0,10.46388 0.67769,13.36159 4.06614,16.33977l2.03307,1.8513l146.09065,0c145.7034,0 145.99384,0 147.93009,-1.60983c3.29164,-2.73671 3.87251,-5.23194 3.87251,-16.58124c0,-18.27156 -1.64582,-19.63992 -23.42872,-19.63992l-14.32831,0l-0.19363,-172.4932l-0.29043,-172.41271l-2.12989,-3.30015c-1.16176,-1.77081 -3.87251,-4.58801 -6.0024,-6.19784c-7.45459,-5.6344 -3.48526,-5.39293 -106.01011,-5.31243c-75.99812,0 -92.84356,0.24147 -96.42564,1.12688zm173.19826,21.6522c4.5502,2.01229 8.61635,6.51981 9.29404,10.3029c0.29043,1.93179 0.48406,25.19383 0.29043,51.8365l-0.29043,48.29488l-2.42032,2.97818c-1.25857,1.60983 -3.96933,3.62211 -5.90558,4.50752c-3.48526,1.69032 -4.74383,1.69032 -77.54712,1.69032l-74.06186,0l-3.29164,-1.8513c-4.93745,-2.8172 -7.45459,-6.35882 -8.13228,-12.07371c-0.29043,-2.73671 -0.48406,-25.67678 -0.29043,-51.03159l0.29043,-45.96063l2.90438,-3.46113c5.80878,-6.76128 0.19363,-6.35882 83.06546,-6.35882c62.15387,0 73.77142,0.16098 76.09493,1.12688zm-57.1196,153.73869c0.87131,0.88541 -0.48406,7.56619 -6.19603,29.54036c-3.96933,15.61535 -6.87372,28.73545 -6.38965,29.13791c0.38725,0.32197 7.74503,-0.32197 16.16775,-1.52934c19.07214,-2.65622 17.81357,-2.57573 19.07214,-0.9659c0.87131,1.04639 -3.58208,9.4175 -22.36378,42.66048c-12.87612,22.69859 -24.0096,41.61409 -24.88091,42.09704c-0.96813,0.56344 -1.83944,0.40246 -3.09801,-0.56344c-1.45219,-1.28786 -1.16176,-3.05867 5.42152,-28.97692c3.87251,-15.21289 7.06734,-28.17201 7.16415,-28.81594c0.29043,-1.60983 -5.90558,-1.28786 -21.58928,1.12688c-12.19842,1.93179 -14.52194,1.77081 -14.52194,-0.88541c0,-1.20737 43.5658,-78.88163 46.08294,-82.18178c1.54901,-2.01229 3.48526,-2.25376 5.13108,-0.64393l0,-0.00001z" />
        <!-- <path fill="#2D660A" stroke="null" id="svg_22" d="m54.84469,1.99952c-5.51833,1.44885 -11.03667,5.23194 -13.84424,9.49799l-2.12989,3.38064l-0.48406,172.65418l-0.48406,172.65418l-15.19962,0.40246c-14.52194,0.40246 -15.29644,0.48295 -17.81357,2.41474c-4.35657,3.38064 -5.2279,6.27833 -5.2279,17.22518c0,10.46388 0.67769,13.36159 4.06614,16.33977l2.03307,1.8513l146.09065,0c145.7034,0 145.99384,0 147.93009,-1.60983c3.29164,-2.73671 3.87251,-5.23194 3.87251,-16.58124c0,-18.27156 -1.64582,-19.63992 -23.42872,-19.63992l-14.32831,0l-0.19363,-172.4932l-0.29043,-172.41271l-2.12989,-3.30015c-1.16176,-1.77081 -3.87251,-4.58801 -6.0024,-6.19784c-7.45459,-5.6344 -3.48526,-5.39293 -106.01011,-5.31243c-75.99812,0 -92.84356,0.24147 -96.42564,1.12688zm173.19826,21.6522c4.5502,2.01229 8.61635,6.51981 9.29404,10.3029c0.29043,1.93179 0.48406,25.19383 0.29043,51.8365l-0.29043,48.29488l-2.42032,2.97818c-1.25857,1.60983 -3.96933,3.62211 -5.90558,4.50752c-3.48526,1.69032 -4.74383,1.69032 -77.54712,1.69032l-74.06186,0l-3.29164,-1.8513c-4.93745,-2.8172 -7.45459,-6.35882 -8.13228,-12.07371c-0.29043,-2.73671 -0.48406,-25.67678 -0.29043,-51.03159l0.29043,-45.96063l2.90438,-3.46113c5.80878,-6.76128 0.19363,-6.35882 83.06546,-6.35882c62.15387,0 73.77142,0.16098 76.09493,1.12688zm-57.1196,153.73869c0.87131,0.88541 -0.48406,7.56619 -6.19603,29.54036c-3.96933,15.61535 -6.87372,28.73545 -6.38965,29.13791c0.38725,0.32197 7.74503,-0.32197 16.16775,-1.52934c19.07214,-2.65622 17.81357,-2.57573 19.07214,-0.9659c0.87131,1.04639 -3.58208,9.4175 -22.36378,42.66048c-12.87612,22.69859 -24.0096,41.61409 -24.88091,42.09704c-0.96813,0.56344 -1.83944,0.40246 -3.09801,-0.56344c-1.45219,-1.28786 -1.16176,-3.05867 5.42152,-28.97692c3.87251,-15.21289 7.06734,-28.17201 7.16415,-28.81594c0.29043,-1.60983 -5.90558,-1.28786 -21.58928,1.12688c-12.19842,1.93179 -14.52194,1.77081 -14.52194,-0.88541c0,-1.20737 43.5658,-78.88163 46.08294,-82.18178c1.54901,-2.01229 3.48526,-2.25376 5.13108,-0.64393l0,-0.00001z" /> -->
    </g>

</svg>